<svg fill="none" height="140" viewBox="0 0 182 140" width="182" xmlns="http://www.w3.org/2000/svg"><path d="m113.314.147461c3.973 0 7.214 1.295959 9.724 3.887869 2.509 2.59192 3.764 5.96141 3.764 10.10847v84.6001c0 3.9401-1.151 7.0501-3.451 9.3311s-5.332 3.421-9.096 3.421c-3.659 0-6.691-1.14-9.096-3.421-2.3-2.281-3.45-5.391-3.45-9.3311v-45.7214l-17.8787 32.6582c-1.7774 3.3176-3.6593 5.7022-5.6458 7.1537-1.9865 1.3478-4.339 2.0217-7.0573 2.0217-2.7184 0-5.0708-.6739-7.0573-2.0217-1.9865-1.4515-3.8685-3.8361-5.6459-7.1537l-17.7217-31.7251v44.7883c0 3.8361-1.2023 6.9461-3.6071 9.3311-2.3001 2.281-5.3321 3.421-9.096 3.421-3.6594 0-6.6914-1.14-9.0961-3.421-2.3002-2.281-3.4503-5.391-3.4503-9.3311v-84.6001c0-4.14706 1.2547-7.51655 3.7639-10.10847 2.6138-2.59191 5.9073-3.887869 9.8803-3.887869 2.8229 0 5.3844.829415 7.6846 2.488239 2.3001 1.55515 4.2344 3.83604 5.8027 6.84266l28.8565 53.80814 28.7002-53.80814c3.241-6.2206 7.632-9.330899 13.173-9.330899z" fill="#fff"/><path clip-rule="evenodd" d="m12.0189 18.5573c0 3.3189-2.69055 6.0094-6.00947 6.0094-3.31891 0-6.00943-2.6905-6.00943-6.0094s2.69052-6.0094 6.00943-6.0094c3.31892 0 6.00947 2.6905 6.00947 6.0094zm0 74.7843c0 3.3189-2.69055 6.0094-6.00947 6.0094-3.31891 0-6.00943-2.6905-6.00943-6.0094 0-3.319 2.69052-6.0095 6.00943-6.0095 3.31892 0 6.00947 2.6905 6.00947 6.0095zm-6.00947-12.6867c3.31892 0 6.00947-2.6905 6.00947-6.0094s-2.69055-6.0094-6.00947-6.0094c-3.31891 0-6.00943 2.6905-6.00943 6.0094s2.69052 6.0094 6.00943 6.0094zm6.00947-43.4015c0 3.3189-2.69055 6.0094-6.00947 6.0094-3.31891 0-6.00943-2.6905-6.00943-6.0094s2.69052-6.0095 6.00943-6.0095c3.31892 0 6.00947 2.6906 6.00947 6.0095zm-6.00947 24.7055c3.31892 0 6.00947-2.6905 6.00947-6.0095 0-3.3189-2.69055-6.0094-6.00947-6.0094-3.31891 0-6.00943 2.6905-6.00943 6.0094 0 3.319 2.69052 6.0095 6.00943 6.0095z" fill="#fff" fill-rule="evenodd"/><path clip-rule="evenodd" d="m145.335 16.4541c9.507-9.50693 22.098-15.22055 35.422-16.166735 1.309-.092962-.809-.139904.512-.139904v111.348539c-1.321 0 .797-.047-.512-.14-13.324-.946-25.915-6.66-35.422-16.1665-10.441-10.4409-16.307-24.6019-16.307-39.3677 0-14.7657 5.866-28.9267 16.307-39.3677zm2.79 2.7903c8.767-8.7666 20.868-14.15536 33.144-15.09406v10.59146c-9.472.9116-18.896 5.1782-25.682 11.9644-7.722 7.722-12.06 18.1952-12.06 29.1156 0 10.9205 4.338 21.3937 12.06 29.1156 6.786 6.7862 16.21 10.8653 25.682 11.7769v10.5917c-12.276-.939-24.377-6.14-33.144-14.9067-9.701-9.701-15.151-22.8583-15.151-36.5775s5.45-26.8765 15.151-36.5774z" fill="#fe6c30" fill-rule="evenodd"/><path d="m10.0625 131.947c-.0365.791-.25 1.492-.64062 2.101-.39063.605-.94011 1.073-1.64844 1.407-.70313.333-1.50782.5-2.41406.5-1.4948 0-2.67188-.487-3.53126-1.461-.85937-.974-1.289058-2.349-1.289058-4.125v-.563c0-1.114.192709-2.088.578128-2.922.39062-.838.95052-1.484 1.67969-1.937.72916-.459 1.57291-.688 2.53124-.688 1.38021 0 2.48959.365 3.32813 1.094.83854.724 1.3151 1.724 1.42965 3h-2.73434c-.02083-.693-.19531-1.19-.52344-1.492-.32812-.302-.82812-.453-1.5-.453-.68229 0-1.18229.255-1.5.765-.3177.511-.48437 1.326-.5 2.446v.804c0 1.214.15105 2.081.45313 2.602.30729.521.83333.781 1.57813.781.6302 0 1.11197-.148 1.44531-.445.33333-.297.51041-.768.53125-1.414zm28.2187 3.851h-2.7343v-11.375h2.7343zm35.4063 0h-2.7266l-4.0312-7.078v7.078h-2.7422v-11.375h2.7422l4.0234 7.078v-7.078h2.7344zm32.7895-4.82h-4.313v2.711h5.094v2.109h-7.8361v-11.375h7.8511v2.118h-5.109v2.398h4.313zm29.5-6.555 2.539 7.914 2.531-7.914h3.609v11.375h-2.75v-2.656l.266-5.437-2.75 8.093h-1.813l-2.757-8.101.265 5.445v2.656h-2.742v-11.375zm41.031 9.25h-3.758l-.656 2.125h-2.93l4.172-11.375h2.578l4.203 11.375h-2.945zm-3.102-2.117h2.446l-1.227-3.945z" fill="#fff"/></svg>