<svg fill="none" height="16" viewBox="0 0 16 16" width="16" xmlns="http://www.w3.org/2000/svg" xmlns:xlink="http://www.w3.org/1999/xlink"><mask id="a" height="14" maskUnits="userSpaceOnUse" width="14" x="1" y="1"><path clip-rule="evenodd" d="m8.00016 1.33334c-3.68 0-6.66666 2.98667-6.66666 6.66667 0 3.67999 2.98666 6.66669 6.66666 6.66669 3.68004 0 6.66664-2.9867 6.66664-6.66669 0-3.68-2.9866-6.66667-6.66664-6.66667zm0 7.33334c-.36666 0-.66666-.3-.66666-.66667v-2.66667c0-.36666.3-.66666.66666-.66666.36667 0 .66667.3.66667.66666v2.66667c0 .36667-.3.66667-.66667.66667zm-.66666 1.33332v1.3333h1.33333v-1.3333z" fill="#000" fill-rule="evenodd"/></mask><g mask="url(#a)"><path d="m0 0h16v16h-16z" fill="#da1414"/></g></svg>