<svg fill="none" height="24" viewBox="0 0 24 24" width="24" xmlns="http://www.w3.org/2000/svg"><g stroke="#0c0507" stroke-linecap="round" stroke-linejoin="round" stroke-width="1.5"><path d="m14.5299 9.46992-5.05998 5.05998c-.65-.65-1.05-1.54-1.05-2.53 0-1.98 1.59998-3.57998 3.57998-3.57998.99 0 1.88.4 2.53 1.05z"/><path d="m17.8201 5.77047c-1.75-1.32-3.75-2.04-5.82-2.04-3.53001 0-6.82001 2.08-9.11001 5.68-.9 1.41003-.9 3.78003 0 5.19003.79 1.24 1.71 2.31 2.71 3.17"/><path d="m8.41992 19.5297c1.14.48 2.34998.74 3.57998.74 3.53 0 6.82-2.08 9.11-5.68.9-1.41.9-3.78 0-5.19001-.33-.52-.69-1.01-1.06-1.47"/><path d="m15.5099 12.7002c-.26 1.41-1.41 2.56-2.82 2.82"/></g></svg>