<svg width="19" height="22" viewBox="0 0 19 22" fill="none" xmlns="http://www.w3.org/2000/svg">
<path d="M3.7677 17.9839C3.1945 17.9839 2.65888 17.7865 2.27361 17.42C1.78497 16.9596 1.55005 16.2642 1.63462 15.5125L1.9823 12.4679C2.04808 11.8947 2.39577 11.1335 2.79983 10.7201L10.5146 2.55427C12.441 0.515155 14.4519 0.458774 16.491 2.38513C18.5301 4.31148 18.5865 6.3224 16.6602 8.36152L8.94537 16.5273C8.55071 16.9502 7.81774 17.3448 7.24454 17.4389L4.21875 17.9556C4.05901 17.965 3.91805 17.9839 3.7677 17.9839ZM13.531 2.37573C12.8075 2.37573 12.1779 2.82678 11.5389 3.50335L3.82408 11.6786C3.63615 11.876 3.42002 12.3458 3.38243 12.6183L3.03475 15.6628C2.99716 15.9729 3.07234 16.2266 3.24148 16.3864C3.41062 16.5461 3.66434 16.6025 3.97443 16.5555L7.00022 16.0388C7.27273 15.9918 7.72377 15.7474 7.91171 15.5501L15.6265 7.38425C16.7917 6.14386 17.2146 4.99745 15.5138 3.39999C14.762 2.67643 14.1136 2.37573 13.531 2.37573Z" fill="#292D32"/>
<path d="M14.8566 9.93065C14.8378 9.93065 14.8096 9.93065 14.7908 9.93065C11.859 9.63935 9.5004 7.41235 9.04935 4.49933C8.99297 4.11405 9.25608 3.75698 9.64135 3.6912C10.0266 3.63482 10.3837 3.89793 10.4495 4.2832C10.8066 6.55723 12.6483 8.30505 14.9412 8.53057C15.3264 8.56816 15.6083 8.91584 15.5708 9.30106C15.5238 9.65814 15.2137 9.93065 14.8566 9.93065Z" fill="#292D32"/>
<path d="M18.2953 21.0179H1.38103C0.995762 21.0179 0.67627 20.6984 0.67627 20.3132C0.67627 19.9279 0.995762 19.6084 1.38103 19.6084H18.2953C18.6806 19.6084 19.0001 19.9279 19.0001 20.3132C19.0001 20.6984 18.6806 21.0179 18.2953 21.0179Z" fill="#292D32"/>
</svg>
