<svg width="20" height="24" viewBox="0 0 20 24" fill="none" xmlns="http://www.w3.org/2000/svg">
<path d="M19.7183 8.01707C18.5352 2.83366 13.9944 0.5 10.0057 0.5C10.0057 0.5 10.0057 0.5 9.99438 0.5C6.01688 0.5 1.46477 2.82244 0.281666 8.00585C-1.03665 13.7951 2.52392 18.698 5.74646 21.7834C6.94083 22.9278 8.47326 23.5 10.0057 23.5C11.538 23.5 13.0704 22.9278 14.2535 21.7834C17.4761 18.698 21.0366 13.8063 19.7183 8.01707ZM10.0057 13.638C8.04508 13.638 6.45632 12.0561 6.45632 10.1039C6.45632 8.15171 8.04508 6.56976 10.0057 6.56976C11.9662 6.56976 13.5549 8.15171 13.5549 10.1039C13.5549 12.0561 11.9662 13.638 10.0057 13.638Z" fill="#292D32"/>
</svg>
