<svg width="14" height="16" viewBox="0 0 14 16" fill="none" xmlns="http://www.w3.org/2000/svg">
<path d="M13.4813 4.3232C13.4673 4.3232 13.4464 4.3232 13.4255 4.3232C9.73485 3.95344 6.05123 3.81391 2.40247 4.18367L0.979255 4.3232C0.68624 4.35111 0.428107 4.14181 0.400201 3.8488C0.372295 3.55578 0.581592 3.30462 0.86763 3.27672L2.29085 3.13719C6.0024 2.76045 9.76276 2.90696 13.5301 3.27672C13.8161 3.30462 14.0254 3.56276 13.9975 3.8488C13.9766 4.12088 13.7464 4.3232 13.4813 4.3232Z" fill="#E53935"/>
<path d="M4.76131 3.61852C4.7334 3.61852 4.7055 3.61852 4.67061 3.61154C4.39155 3.56271 4.19621 3.29062 4.24504 3.01156L4.39853 2.09763C4.51015 1.42788 4.66364 0.5 6.28915 0.5H8.117C9.74952 0.5 9.903 1.46276 10.0076 2.10461L10.1611 3.01156C10.21 3.2976 10.0146 3.56968 9.73556 3.61154C9.44953 3.66038 9.17744 3.46504 9.13558 3.18597L8.9821 2.27902C8.88442 1.67206 8.86349 1.55346 8.12398 1.55346H6.29612C5.55664 1.55346 5.54268 1.65113 5.43803 2.27204L5.27757 3.179C5.23571 3.43713 5.01246 3.61852 4.76131 3.61852Z" fill="#E53935"/>
<path d="M9.44232 15.5004H4.96336C2.52854 15.5004 2.43087 14.154 2.35413 13.0656L1.90065 6.0402C1.87972 5.75416 2.10297 5.50301 2.38901 5.48208C2.68203 5.46813 2.92621 5.6844 2.94714 5.97044L3.40061 12.9958C3.47735 14.0563 3.50526 14.4539 4.96336 14.4539H9.44232C10.9074 14.4539 10.9353 14.0563 11.0051 12.9958L11.4585 5.97044C11.4795 5.6844 11.7306 5.46813 12.0167 5.48208C12.3027 5.50301 12.526 5.74719 12.505 6.0402L12.0515 13.0656C11.9748 14.154 11.8771 15.5004 9.44232 15.5004Z" fill="#E53935"/>
<path d="M8.36073 11.6617H6.03754C5.75149 11.6617 5.51428 11.4245 5.51428 11.1385C5.51428 10.8524 5.75149 10.6152 6.03754 10.6152H8.36073C8.64677 10.6152 8.88397 10.8524 8.88397 11.1385C8.88397 11.4245 8.64677 11.6617 8.36073 11.6617Z" fill="#E53935"/>
<path d="M8.9467 8.87168H5.45842C5.17238 8.87168 4.93518 8.63448 4.93518 8.34844C4.93518 8.0624 5.17238 7.8252 5.45842 7.8252H8.9467C9.23274 7.8252 9.46994 8.0624 9.46994 8.34844C9.46994 8.63448 9.23274 8.87168 8.9467 8.87168Z" fill="#E53935"/>
</svg>
